<?xml version="1.0" standalone="no"?>
<!DOCTYPE svg PUBLIC "-//W3C//DTD SVG 20010904//EN"
 "http://www.w3.org/TR/2001/REC-SVG-20010904/DTD/svg10.dtd">
<svg version="1.0" xmlns="http://www.w3.org/2000/svg"
 width="1280.000000pt" height="815.000000pt" viewBox="0 0 1280.000000 815.000000"
 preserveAspectRatio="xMidYMid meet">
<g transform="translate(0.000000,815.000000) scale(0.100000,-0.100000)"
fill="#000000" stroke="none">
<path d="M6210 8144 c-148 -13 -279 -28 -380 -45 -1232 -211 -2258 -1125
-2611 -2327 -90 -309 -131 -593 -131 -927 -1 -370 45 -686 147 -1006 158 -492
401 -906 754 -1284 87 -93 110 -125 151 -210 78 -160 152 -405 290 -955 222
-888 354 -1202 533 -1268 333 -125 1778 -162 2547 -66 158 20 304 51 351 75
171 86 286 373 519 1294 146 575 202 760 280 920 41 85 64 117 151 210 568
609 877 1352 905 2180 33 968 -382 1931 -1107 2570 -239 211 -468 365 -744
500 -355 175 -676 270 -1075 320 -120 15 -487 27 -580 19z m-900 -2549 c203
-65 361 -174 485 -336 119 -154 195 -375 195 -569 0 -78 -25 -223 -53 -305
-98 -287 -332 -509 -634 -602 -81 -24 -102 -27 -258 -27 -156 0 -177 3 -258
27 -164 50 -302 133 -413 249 -116 120 -181 228 -228 377 -104 330 -20 685
223 934 119 123 248 201 411 250 115 35 123 36 295 32 131 -2 161 -6 235 -30z
m2710 0 c168 -54 294 -130 411 -252 110 -112 176 -224 223 -372 140 -445 -65
-916 -491 -1130 -34 -17 -102 -43 -150 -58 -81 -24 -102 -27 -258 -27 -156 0
-177 3 -258 27 -256 79 -469 256 -587 487 -55 108 -100 296 -100 420 0 80 27
231 55 312 79 227 256 426 473 532 158 78 248 96 447 91 129 -3 162 -7 235
-30z"/>
<path d="M891 6379 c-674 -82 -1074 -785 -801 -1409 91 -208 266 -392 470
-495 131 -66 298 -105 452 -105 96 0 258 28 336 59 l47 19 325 -128 c179 -70
493 -193 699 -274 206 -80 376 -145 378 -142 2 2 -7 48 -21 102 -113 450 -134
878 -65 1333 11 73 17 137 12 142 -4 4 -185 77 -402 162 l-393 154 -32 60
c-140 261 -388 447 -676 508 -90 18 -241 25 -329 14z"/>
<path d="M11669 6380 c-232 -29 -442 -133 -600 -297 -66 -68 -154 -191 -178
-250 -14 -34 28 -16 -574 -251 l-249 -97 6 -35 c2 -19 14 -98 26 -175 27 -180
38 -540 21 -710 -17 -172 -45 -341 -85 -511 -20 -82 -33 -150 -31 -152 3 -3
1002 385 1370 533 26 10 40 8 97 -11 145 -51 328 -66 479 -39 340 59 617 271
757 582 265 583 -86 1266 -717 1398 -88 18 -241 25 -322 15z"/>
<path d="M2332 2441 l-934 -368 -88 28 c-461 148 -969 -64 -1193 -499 -253
-492 -69 -1089 416 -1347 332 -177 723 -160 1033 44 136 90 269 238 335 373
l22 46 256 101 c189 74 1570 617 1759 692 12 5 22 15 22 22 0 18 -95 370 -115
426 -8 24 -36 92 -62 150 -41 91 -60 120 -141 211 -101 114 -238 289 -321 413
-28 42 -53 77 -54 76 -1 0 -422 -166 -935 -368z"/>
<path d="M9479 2733 c-104 -155 -203 -279 -351 -444 -43 -47 -78 -89 -78 -94
0 -4 -18 -48 -40 -97 -53 -117 -79 -196 -133 -404 l-45 -171 872 -343 c479
-189 939 -370 1022 -403 l151 -59 23 -46 c65 -135 198 -284 334 -373 93 -62
227 -119 336 -143 338 -77 716 40 955 296 201 214 300 512 266 798 -58 477
-422 839 -897 892 -125 14 -256 1 -389 -38 -50 -14 -95 -27 -101 -27 -8 0
-1845 717 -1866 730 -4 2 -31 -31 -59 -74z"/>
</g>
</svg>
